<svg xmlns="http://www.w3.org/2000/svg" width="16" height="16"><g fill="none" fill-rule="evenodd"><path d="M0 0h16v16H0z"/><path fill="#754E7F" fill-rule="nonzero" d="M8 8.098c-2.32 0-4.213-1.812-4.213-4.044C3.787 1.812 5.68 0 8 0c2.32 0 4.213 1.813 4.213 4.054 0 2.232-1.893 4.044-4.213 4.044zm0-6.044c-1.141 0-2.07.892-2.07 2 0 1.098.929 1.99 2.07 1.99 1.141 0 2.07-.892 2.07-1.99 0-1.108-.929-2-2.07-2zm4.853 6.535c.408.804-.056 1.188-1.114 1.848-.89.545-2.115.76-2.922.84l.677.643 2.477 2.384a.913.913 0 0 1 0 1.312l-.111.116c-.38.357-.993.357-1.373 0a552.932 552.932 0 0 0-2.478-2.393l-2.477 2.393c-.38.357-.993.357-1.364 0l-.112-.116a.897.897 0 0 1 0-1.312c.631-.608 1.531-1.483 2.478-2.384l.668-.643c-.798-.08-2.041-.286-2.941-.84-1.058-.66-1.522-1.044-1.114-1.848.241-.455.9-.839 1.772-.178 0 0 1.179.902 3.081.902s3.08-.902 3.08-.902c.873-.661 1.532-.277 1.773.178z"/></g></svg>