<svg xmlns="http://www.w3.org/2000/svg" width="16" height="16"><g fill="none" fill-rule="evenodd"><path d="M0 0h16v16H0z"/><path fill="#754E7F" fill-rule="nonzero" d="M16 2.544a7.051 7.051 0 0 1-1.645 1.696c.01.142.01.284.01.426 0 4.337-3.299 9.334-9.33 9.334A9.264 9.264 0 0 1 0 12.527c.264.03.518.041.792.041a6.566 6.566 0 0 0 4.07-1.402 3.285 3.285 0 0 1-3.065-2.275c.203.03.406.051.62.051.294 0 .588-.04.862-.112A3.28 3.28 0 0 1 .65 5.61v-.04c.437.244.945.396 1.483.417A3.279 3.279 0 0 1 .67 3.255c0-.61.162-1.168.447-1.656a9.32 9.32 0 0 0 6.761 3.433 3.704 3.704 0 0 1-.081-.752A3.278 3.278 0 0 1 11.077 1a3.27 3.27 0 0 1 2.395 1.036 6.454 6.454 0 0 0 2.081-.792 3.271 3.271 0 0 1-1.441 1.808c.66-.072 1.3-.254 1.888-.508z"/></g></svg>