<svg xmlns="http://www.w3.org/2000/svg" width="16" height="16"><g fill="none" fill-rule="evenodd"><path d="M0 0h16v16H0z"/><path fill="#754E7F" d="M15.977 4.65c.125.338-.266 1.126-1.25 2.415-1.615 2.12-1.79 1.922-.457 3.146 1.283 1.174 1.55 1.741 1.59 1.815 0 0 .534.92-.59.928l-2.133.033c-.458.09-1.066-.32-1.066-.32-.8-.542-1.55-1.947-2.133-1.766 0 0-.6.189-.583 1.454a.623.623 0 01-.125.418s-.15.157-.442.181H7.83c-2.107.132-3.965-1.782-3.965-1.782S1.832 9.102.05 4.972c-.117-.272.008-.403.008-.403s.125-.156.475-.156l2.282-.017c.217.033.367.148.367.148s.133.09.2.263c.375.92.858 1.757.858 1.757.833 1.692 1.4 1.98 1.724 1.807 0 0 .425-.254.334-2.3-.034-.738-.242-1.075-.242-1.075-.192-.255-.55-.329-.708-.353-.125-.017.083-.312.358-.444.408-.197 1.133-.205 1.991-.197.675.008.866.05 1.125.107.791.189.524.911.524 2.653 0 .558-.108 1.338.3 1.593.175.115.608.016 1.675-1.774 0 0 .5-.854.891-1.848a.492.492 0 01.208-.255s.134-.074.317-.049l2.4-.016c.724-.09.84.238.84.238z"/></g></svg>