<svg xmlns="http://www.w3.org/2000/svg" width="16" height="16"><path fill="#754E7F" d="M11.417 10.042L16 14.625 14.625 16l-4.542-4.583v-.709l-.291-.25c-1.111.945-2.403 1.417-3.875 1.417-1.64 0-3.035-.576-4.188-1.73C.576 8.994 0 7.598 0 5.959 0 4.32.576 2.917 1.73 1.75 2.881.583 4.263 0 5.874 0c1.639 0 3.035.583 4.188 1.75 1.152 1.167 1.729 2.57 1.729 4.208 0 1.473-.473 2.764-1.417 3.875l.292.209h.75zM3 8.875c.806.778 1.778 1.167 2.917 1.167 1.139 0 2.11-.396 2.916-1.188.806-.792 1.209-1.757 1.209-2.896s-.403-2.11-1.209-2.916c-.805-.806-1.777-1.209-2.916-1.209-1.14 0-2.104.403-2.896 1.209-.792.805-1.188 1.777-1.188 2.916 0 1.14.39 2.111 1.167 2.917z"/></svg>