<svg xmlns="http://www.w3.org/2000/svg" width="24" height="24"><g fill="none" fill-rule="evenodd"><path d="M0 0h24v24H0z"/><path fill="#9B9B9B" fill-rule="nonzero" d="M20.393 3.429c.446 0 .826.156 1.138.468.313.313.469.692.469 1.139v15.357c0 .446-.156.826-.469 1.138a1.55 1.55 0 0 1-1.138.469H3.607a1.55 1.55 0 0 1-1.138-.469A1.55 1.55 0 0 1 2 20.393V5.036c0-.447.156-.826.469-1.139a1.55 1.55 0 0 1 1.138-.468h2.679v-.625c0-.224.078-.413.234-.57A.775.775 0 0 1 7.09 2c.223 0 .412.078.568.234a.775.775 0 0 1 .235.57v.625h8.214v-.625c0-.224.078-.413.235-.57A.775.775 0 0 1 16.91 2c.223 0 .413.078.569.234a.775.775 0 0 1 .234.57v.625h2.679zM3.607 5.036v2.5h16.786v-2.5h-2.679v.446a.775.775 0 0 1-.234.57.775.775 0 0 1-.57.234.775.775 0 0 1-.568-.235.775.775 0 0 1-.235-.569v-.446H7.893v.446a.775.775 0 0 1-.235.57.775.775 0 0 1-.569.234.775.775 0 0 1-.569-.235.775.775 0 0 1-.234-.569v-.446H3.607zm16.786 15.357V9.143H3.607v11.25h16.786zM7 12h1.429c.193 0 .36.07.502.212a.686.686 0 0 1 .212.502c0 .194-.07.361-.212.503a.686.686 0 0 1-.502.212H7a.686.686 0 0 1-.502-.212.686.686 0 0 1-.212-.503c0-.193.07-.36.212-.502A.686.686 0 0 1 7 12zm4.286 0h1.428c.194 0 .361.07.503.212a.686.686 0 0 1 .212.502.69.69 0 0 1-.212.503.686.686 0 0 1-.503.212h-1.428a.686.686 0 0 1-.503-.212.686.686 0 0 1-.212-.503.69.69 0 0 1 .212-.502.686.686 0 0 1 .503-.212zm4.285 0H17c.193 0 .36.07.502.212a.686.686 0 0 1 .212.502c0 .194-.07.361-.212.503a.686.686 0 0 1-.502.212h-1.429a.686.686 0 0 1-.502-.212.686.686 0 0 1-.212-.503c0-.193.07-.36.212-.502a.686.686 0 0 1 .502-.212zM7 16.33h1.429a.69.69 0 0 1 .502.212.686.686 0 0 1 .212.503c0 .193-.07.36-.212.502a.686.686 0 0 1-.502.212H7a.686.686 0 0 1-.502-.212.686.686 0 0 1-.212-.502c0-.194.07-.361.212-.503A.686.686 0 0 1 7 16.33zm4.286 0h1.428a.69.69 0 0 1 .503.212.686.686 0 0 1 .212.503.69.69 0 0 1-.212.502.686.686 0 0 1-.503.212h-1.428a.686.686 0 0 1-.503-.212.686.686 0 0 1-.212-.502.69.69 0 0 1 .212-.503.686.686 0 0 1 .503-.212z"/></g></svg>