<svg xmlns="http://www.w3.org/2000/svg" width="20" height="24"><g fill="#FFF"><path d="M4.976 15.413c0-.397-.282-.635-.78-.635-.203 0-.34.02-.413.039v1.276c.086.019.19.025.335.025.53 0 .858-.262.858-.705zm3.08-.621c-.223 0-.367.018-.452.038v2.827c.085.02.223.02.348.02.904.006 1.493-.481 1.493-1.513.007-.898-.53-1.372-1.389-1.372z"/><path d="M13.78 0H3.95C2.514 0 1.345 1.145 1.345 2.55v9.429h-.254c-.58 0-1.05.46-1.05 1.027v6.231c0 .568.47 1.028 1.05 1.028h.254v1.142c0 1.407 1.169 2.55 2.605 2.55h13.412c1.435 0 2.604-1.143 2.604-2.55V6.035L13.78 0zM2.795 14.13c.307-.05.74-.089 1.349-.089.615 0 1.054.115 1.349.346.282.218.472.578.472 1 0 .423-.144.783-.406 1.026-.341.315-.845.455-1.435.455a2.64 2.64 0 0 1-.34-.018v1.545h-.99V14.13zm14.567 8.266H3.95a1 1 0 0 1-1.009-.989v-1.142h12.503c.58 0 1.05-.46 1.05-1.028v-6.23c0-.569-.47-1.028-1.05-1.028H2.941v-9.43a1 1 0 0 1 1.009-.986l9.233-.01v3.341c0 .976.809 1.769 1.806 1.769l3.343-.01.038 14.754a1 1 0 0 1-1.008.989zm-10.76-4.02V14.13c.367-.058.845-.09 1.35-.09.838 0 1.382.148 1.808.462.458.333.746.865.746 1.628 0 .827-.308 1.398-.734 1.75-.465.379-1.172.558-2.037.558-.517 0-.884-.032-1.133-.064zm7.149-2.514v.795h-1.585v1.738h-1.002v-4.322h2.698v.802h-1.696v.987h1.585z"/></g></svg>