<svg xmlns="http://www.w3.org/2000/svg" xmlns:xlink="http://www.w3.org/1999/xlink" width="320" height="313" viewBox="0 0 320 313">
    <defs>
        <path id="a" d="M0 0h320v313H0z"/>
        <linearGradient id="c" x1="50%" x2="50%" y1="79.451%" y2="100%">
            <stop offset="0%" stop-color="#F6F5F0"/>
            <stop offset="100%" stop-color="#F2F0E9"/>
        </linearGradient>
    </defs>
    <g fill="none" fill-rule="evenodd">
        <mask id="b" fill="#fff">
            <use xlink:href="#a"/>
        </mask>
        <use fill="#F2F0E9" fill-rule="nonzero" xlink:href="#a"/>
        <g fill="url(#c)" fill-rule="nonzero" mask="url(#b)">
            <path d="M224 86.5c0 30.888-5.035 53.618-14.845 68.272C198.826 169.624 183.321 177 162.5 177c-20.42 0-35.725-7.617-46.125-22.757C106.155 138.916 101 116.426 101 86.5c0-30.848 5.015-53.719 14.845-68.272C126.073 3.356 141.518-4 162.5-4c20.18 0 35.524 7.697 46.125 23.287C218.805 34.485 224 57.015 224 86.5zm-86.941-.134c0 21.461 1.892 36.942 5.876 46.045 3.584 9.611 9.951 14.29 18.697 14.29 8.995 0 15.342-4.74 19.231-14.29 3.923-9.404 5.876-24.825 5.876-46.045 0-21.75-1.973-37.27-5.876-46.574-3.99-9.571-10.318-14.29-19.231-14.29-8.664 0-15.012 4.719-18.697 14.29-3.964 9.303-5.876 24.824-5.876 46.574zm-50.68 51.264H65.283V174H28.892v-36.37H-46V111.8L31.002-1h34.281v110.166H86.38v28.464zm-57.235-29.106V79.01c.023-5.032.223-12.196.527-21.608.494-9.374.814-14.826 1.053-16.339h-1.053c-2.86 6.528-6.414 12.896-10.537 18.974l-32.139 48.487h42.149zm337.498 29.106h-21.096V174h-36.391v-36.37h-74.892V111.8L311.264-1h34.282v110.166h21.096v28.464zm-56.838-29.106V79.01c.023-5.032.223-12.196.527-21.608.494-9.374.814-14.826 1.054-16.339h-1.054c-2.86 6.528-6.414 12.896-10.537 18.974l-32.138 48.487h42.148z"/>
        </g>
    </g>
</svg>
