<svg xmlns="http://www.w3.org/2000/svg" width="96" height="31"><g fill="none" fill-rule="evenodd"><path fill="#333" d="M89.499 8.996a3.945 3.945 0 0 0-1.415-.752 6.338 6.338 0 0 0-1.858-.254c-.27 0-.523.017-.758.05a16.47 16.47 0 0 0-.576.092l.344-1.89h5.455l.343-2.805H82.71l-1.333 6.93 1.757.855c.35-.163.684-.281 1-.356.317-.074.617-.112.9-.112.552 0 1.02.12 1.404.356.384.237.576.613.576 1.128 0 .691-.236 1.21-.708 1.555-.471.346-1.118.519-1.94.519-.215 0-.43-.007-.646-.02a4.632 4.632 0 0 1-.696-.102 13.636 13.636 0 0 1-1.91-.57l-1.151 2.541a6.06 6.06 0 0 0 1.182.539 10.397 10.397 0 0 0 2.465.498c.37.027.676.04.918.04.822 0 1.607-.108 2.354-.325a5.693 5.693 0 0 0 1.97-.996 4.947 4.947 0 0 0 1.354-1.666c.336-.664.505-1.444.505-2.338 0-.637-.105-1.2-.313-1.687a3.29 3.29 0 0 0-.9-1.23zm-14.163.506c-.08.64-.168 1.306-.262 2-.256.19-.543.354-.859.49a2.283 2.283 0 0 1-.9.204c-.322 0-.598-.123-.827-.367-.23-.245-.344-.688-.344-1.327 0-.653.071-1.19.212-1.612.142-.422.32-.756.536-1a1.98 1.98 0 0 1 .666-.521c.23-.102.438-.153.627-.153.188 0 .407.02.656.061.25.041.509.116.778.225-.108.694-.202 1.36-.283 2zm3.273 2.816c.148-1.36.313-2.677.495-3.954.182-1.277.367-2.534.556-3.77l-3.152-.122-.262.61a4.662 4.662 0 0 0-1.304-.427 7.028 7.028 0 0 0-1.08-.102c-.93 0-1.735.19-2.415.57a5.139 5.139 0 0 0-1.687 1.493 6.462 6.462 0 0 0-.99 2.134 9.596 9.596 0 0 0-.323 2.49c0 .516.05 1 .152 1.454.1.454.272.853.515 1.199.242.345.565.617.97.813.403.196.909.295 1.515.295a4.23 4.23 0 0 0 1.475-.303 6.01 6.01 0 0 0 .97-.495c.336-.208.666-.48.99-.817l.06.04c.027.633.202 1.054.525 1.262.323.208.754.313 1.293.313.485 0 .983-.054 1.495-.162a5.996 5.996 0 0 0 1.455-.504l-.162-2.038-1.09.02zM65.8 0c-.714 0-1.266.196-1.656.59-.391.393-.586.9-.586 1.524 0 .501.148.911.444 1.23.296.318.768.477 1.414.477.728 0 1.294-.203 1.698-.61.404-.406.606-.914.606-1.524 0-.515-.159-.925-.475-1.23C66.928.152 66.447 0 65.8 0zm-2.666 7.002c-.108.902-.223 1.84-.344 2.816-.12.975-.236 1.914-.343 2.815l-.263 2.205h3.758c.08-.69.175-1.47.283-2.338.107-.867.215-1.754.323-2.662.108-.908.215-1.8.323-2.673.108-.874.209-1.663.303-2.368h-3.757a99.51 99.51 0 0 0-.283 2.205zm-6.081 1.326a97.81 97.81 0 0 0-.162 1.174c-.054.408-.104.799-.152 1.173-.047.374-.077.65-.09.827a5.3 5.3 0 0 1-.88.5 2.228 2.228 0 0 1-.918.214c-.337 0-.62-.126-.85-.378-.228-.251-.342-.704-.342-1.357 0-.625.07-1.146.212-1.561.141-.415.316-.748.525-1 .209-.252.427-.432.657-.541a1.48 1.48 0 0 1 .626-.163c.188 0 .417.02.687.061.269.041.538.116.808.225-.027.176-.068.452-.121.826zm.464-3.47a4.996 4.996 0 0 0-1.222-.305 9.175 9.175 0 0 0-1.08-.081c-.93 0-1.732.203-2.405.61a5.104 5.104 0 0 0-1.647 1.575 7.023 7.023 0 0 0-.939 2.175 9.88 9.88 0 0 0-.303 2.408c0 .529.057 1.024.172 1.484.114.461.292.86.535 1.2.242.338.545.606.91.802.363.197.8.295 1.312.295.216 0 .462-.02.738-.06.276-.041.572-.118.889-.233a5.97 5.97 0 0 0 .99-.474 6.805 6.805 0 0 0 1.06-.787l.081.061c-.013.068-.03.166-.05.295l-.06.386a8.037 8.037 0 0 0-.052.376c-.013.122-.02.21-.02.264h3.556a77.8 77.8 0 0 1 .182-1.535c.094-.752.198-1.627.313-2.624a496.502 496.502 0 0 1 .768-6.327c.128-.996.239-1.871.333-2.624A78.15 78.15 0 0 1 61.78.203h-3.677l-.586 4.655zM44.73 8.984c-.458.244-1.132.393-2.02.447.08-.8.285-1.392.616-1.778.33-.386.744-.58 1.242-.58.31 0 .529.092.657.275.128.183.192.37.192.559 0 .474-.23.833-.687 1.077zm3.1-3.799a3.329 3.329 0 0 0-1.19-.54 6.497 6.497 0 0 0-1.567-.173c-1.131 0-2.088.183-2.869.55-.78.366-1.414.848-1.899 1.446a5.651 5.651 0 0 0-1.05 2.016 8.04 8.04 0 0 0-.324 2.24c0 .557.058 1.093.172 1.609.114.516.337.974.667 1.375.33.4.788.723 1.374.967.586.244 1.35.366 2.293.366.269 0 .599-.02.99-.06a12.38 12.38 0 0 0 2.495-.534c.424-.136.811-.3 1.161-.491l-.666-2.126a12.31 12.31 0 0 1-1.647.427c-.29.054-.569.098-.838.132-.27.034-.512.05-.727.05-.607 0-1.008-.08-1.202-.239-.196-.16-.294-.405-.294-.738v-.1c1.185-.04 2.175-.19 2.97-.448.795-.258 1.425-.574 1.89-.948.464-.374.794-.778.99-1.213.194-.435.292-.856.292-1.264 0-.53-.087-.985-.262-1.366a2.393 2.393 0 0 0-.758-.938zm-10.656.08a1.867 1.867 0 0 0-.758-.54c-.316-.128-.71-.192-1.182-.192-.175 0-.4.03-.676.091a6.846 6.846 0 0 0-1.97.803c-.364.217-.72.481-1.07.793a2.179 2.179 0 0 0-.7-1.22c-.357-.311-.912-.467-1.667-.467-.35 0-.848.108-1.495.325-.646.217-1.32.63-2.02 1.24l-.101-.061c.054-.244.09-.454.111-.63.02-.176.05-.38.091-.61h-3.536c-.202 1.64-.4 3.303-.596 4.99a397.86 397.86 0 0 1-.616 5.051h3.738l.808-6.565c.31-.257.589-.44.838-.549.25-.108.468-.163.657-.163.552 0 .828.278.828.834 0 .122-.007.217-.02.284a539.77 539.77 0 0 0-.768 6.159h3.718l.747-6.586c.296-.243.583-.42.859-.528.276-.108.508-.163.697-.163.552 0 .828.278.828.834 0 .122-.007.217-.02.284a436.604 436.604 0 0 1-.768 6.159h3.718c.12-1.07.252-2.161.394-3.272.141-1.111.265-2.155.373-3.13.027-.272.047-.516.061-.732.013-.217.02-.42.02-.61 0-.366-.04-.705-.121-1.016a2.1 2.1 0 0 0-.404-.814z"/><path fill="#F9A719" d="M5.3 5.67a2.959 2.959 0 0 1-.648 4.117A2.918 2.918 0 0 1 .56 9.135a2.959 2.959 0 0 1 .648-4.117A2.918 2.918 0 0 1 5.3 5.67m-.98 5.694a2.926 2.926 0 0 1 3.692 1.892 2.951 2.951 0 0 1-1.88 3.714 2.926 2.926 0 0 1-3.692-1.892 2.951 2.951 0 0 1 1.88-3.714m5.027 2.802a2.938 2.938 0 0 1 2.93-2.947c1.618 0 2.93 1.32 2.93 2.947a2.939 2.939 0 0 1-2.93 2.948 2.939 2.939 0 0 1-2.93-2.948m4.157-3.96a2.951 2.951 0 0 1-1.88-3.714 2.926 2.926 0 0 1 3.69-1.892 2.951 2.951 0 0 1 1.881 3.714 2.926 2.926 0 0 1-3.69 1.892M11.04 5.01a2.918 2.918 0 0 1-4.093.652A2.959 2.959 0 0 1 6.3 1.545a2.918 2.918 0 0 1 4.092-.652 2.96 2.96 0 0 1 .648 4.117"/><text fill="#333" font-family="OpenSans, Open Sans" font-size="10.029"><tspan x="20.059" y="28.324">Создание сайта</tspan></text></g></svg>